#!OML:ASF F:\VICON\USERDATA\INSTALL\rory3\rory3.ASF
:FULLY-SPECIFIED
:DEGREES
1396
root -3.60065 18.6619 6.61334 -3.4002 -37.3598 13.3214
lowerback 12.9192 -1.40792 4.95471
upperback 3.148 -1.13514 3.03853
thorax -3.95906 -0.621788 0.573712
lowerneck -11.6719 2.68535 1.43316
upperneck -17.2655 3.47474 3.30624
head -3.71771 1.34861 0.876666
rclavicle 7.55382e-014 -2.8625e-014
rhumerus 31.7985 -0.455507 -52.1091
rradius 94.2038
rwrist 18.5372
rhand -65.0486 -21.1047
rfingers 7.12502
rthumb -36.9436 -47.1837
lclavicle 7.55382e-014 -2.8625e-014
lhumerus -14.0586 -35.3411 83.5022
lradius 43.2875
lwrist 0.280498
lhand -30.3768 41.3985
lfingers 7.12502
lthumb -3.6813 71.3465
rfemur -21.7379 18.8802 4.64116
rtibia 35.7246
rfoot -18.5061 -5.47578
rtoes 3.26104
lfemur -5.54561 4.35123 -17.0156
ltibia 31.7489
lfoot -1.12135 6.44367
ltoes -25.7105
1397
root -3.63919 18.6625 6.6044 -3.17873 -36.7964 12.8505
lowerback 12.6116 -1.26516 4.9778
upperback 2.98725 -0.958005 2.92817
thorax -3.9573 -0.534379 0.411817
lowerneck -11.243 2.28828 0.8624
upperneck -17.6482 3.09491 3.94214
head -3.95251 1.16789 1.18538
rclavicle -1.06549e-013 5.725e-014
rhumerus 33.4868 -2.39623 -52.2625
rradius 93.4976
rwrist 17.7433
rhand -64.8474 -22.0866
rfingers 7.12502
rthumb -36.7533 -48.2144
lclavicle -1.06549e-013 5.725e-014
lhumerus -14.7103 -34.6364 82.5041
lradius 43.3158
lwrist 0.439682
lhand -30.3835 41.4291
lfingers 7.12502
lthumb -3.68777 71.3769
rfemur -21.2535 18.8119 5.2111
rtibia 35.5247
rfoot -18.6598 -5.82402
rtoes 3.54404
lfemur -5.49782 3.99139 -16.4494
ltibia 31.7478
lfoot -1.2745 6.36941
ltoes -26.2038
1398
root -3.67805 18.6643 6.5994 -3.06239 -36.1396 12.4023
lowerback 12.3584 -1.11706 5.05728
upperback 2.82151 -0.762832 2.80986
thorax -3.98937 -0.439378 0.209635
lowerneck -10.5577 1.8539 0.15147
upperneck -18.1726 2.69843 4.67916
head -4.28932 0.979028 1.56206
rclavicle -2.8625e-014 -3.18055e-015
rhumerus 35.0332 -4.326 -52.1921
rradius 92.5993
rwrist 17.2899
rhand -64.9705 -22.6633
rfingers 7.12502
rthumb -36.8697 -48.7614
lclavicle -2.8625e-014 -3.18055e-015
lhumerus -15.3295 -33.6623 81.6332
lradius 43.1806
lwrist -0.0941963
lhand -30.4062 41.2918
lfingers 7.12502
lthumb -3.70969 71.2393
rfemur -20.6343 18.6704 5.80573
rtibia 35.3003
rfoot -18.8572 -6.20372
rtoes 3.42189
lfemur -5.35166 3.53001 -15.9024
ltibia 31.7195
lfoot -1.46268 6.27566
ltoes -26.7224
1399
root -3.71574 18.6645 6.59665 -2.91276 -35.5086 11.8023
lowerback 12.4617 -0.980703 5.12092
upperback 2.51757 -0.544819 2.83654
thorax -4.35901 -0.340363 0.173337
lowerneck -10.7016 1.3729 0.0932822
upperneck -17.8109 2.0436 4.61422
head -4.10632 0.678914 1.54711
rclavicle 4.05521e-014 5.725e-014
rhumerus 36.5166 -5.97838 -51.8711
rradius 91.5523
rwrist 17.0624
rhand -65.174 -23.714
rfingers 7.12502
rthumb -37.0623 -49.7624
lclavicle 4.05521e-014 5.725e-014
lhumerus -16.1349 -32.4067 80.9945
lradius 43.017
lwrist -1.0283
lhand -30.57 41.334
lfingers 7.12502
lthumb -3.86792 71.2787
rfemur -19.9686 18.6176 6.55971
rtibia 35.0494
rfoot -18.8894 -6.71969
rtoes 2.56932
lfemur -5.09957 3.20786 -15.2035
ltibia 31.5737
lfoot -1.58581 5.97695
ltoes -27.8695
1400
root -3.75314 18.6655 6.59848 -2.84806 -34.9524 11.3569
lowerback 12.2624 -0.883339 5.21466
upperback 2.44032 -0.419955 2.6624
thorax -4.328 -0.279645 -0.0838585
lowerneck -11.1802 0.95048 0.41679
upperneck -17.4268 1.41372 4.44074
head -3.85459 0.370809 1.42638
rclavicle 7.4743e-014 -1.27222e-014
rhumerus 38.3366 -7.68105 -51.9757
rradius 90.3037
rwrist 17.1139
rhand -65.0424 -23.4005
rfingers 7.12502
rthumb -36.9378 -49.4811
lclavicle 7.4743e-014 -1.27222e-014
lhumerus -16.5206 -31.2549 79.7528
lradius 42.9119
lwrist -1.81205
lhand -30.9078 41.5287
lfingers 7.12502
lthumb -4.19408 71.4672
rfemur -19.3017 18.6351 7.1668
rtibia 34.7898
rfoot -18.8031 -7.26164
rtoes 1.13439
lfemur -4.77734 2.96898 -14.6704
ltibia 31.3465
lfoot -1.60946 5.58372
ltoes -29.1782
1401
root -3.7907 18.6723 6.60775 -3.10195 -34.3091 11.4304
lowerback 11.9064 -0.808109 4.86846
upperback 2.43775 -0.398362 2.39171
thorax -4.13376 -0.260766 -0.181492
lowerneck -11.0471 0.618003 0.0583599
upperneck -17.5375 1.06216 4.91299
head -3.91824 0.204662 1.65097
rclavicle -3.18055e-015 6.67916e-014
rhumerus 40.2989 -9.23101 -52.2049
rradius 88.8252
rwrist 17.4904
rhand -64.8552 -21.616
rfingers 7.12502
rthumb -36.7607 -47.742
lclavicle -3.18055e-015 6.67916e-014
lhumerus -16.8779 -29.903 78.4846
lradius 42.8523
lwrist -2.65938
lhand -31.097 41.4355
lfingers 7.12502
lthumb -4.37679 71.3703
rfemur -18.534 18.5071 7.30007
rtibia 34.5212
rfoot -18.8101 -7.63295
rtoes 0.91245
lfemur -4.40778 2.54169 -14.6755
ltibia 31.1004
lfoot -1.63986 5.22121
ltoes -30.1695
1402
root -3.82645 18.6778 6.61133 -3.19031 -33.6466 11.3662
lowerback 11.6242 -0.73174 4.55714
upperback 2.3444 -0.354595 2.20299
thorax -4.07422 -0.234631 -0.213383
lowerneck -10.8258 0.285514 -0.496349
upperneck -17.606 0.74293 5.52673
head -3.98348 0.0630179 1.96108
rclavicle 7.95139e-015 -3.18055e-014
rhumerus 42.1231 -10.6816 -52.2649
rradius 87.256
rwrist 18.0003
rhand -64.6948 -18.517
rfingers 7.12502
rthumb -36.6088 -44.6816
lclavicle 7.95139e-015 -3.18055e-014
lhumerus -17.3075 -28.5721 77.3359
lradius 42.8002
lwrist -3.33299
lhand -31.1463 41.3198
lfingers 7.12502
lthumb -4.42438 71.2536
rfemur -17.8944 18.4041 7.53258
rtibia 34.2541
rfoot -18.9703 -8.01002
rtoes 1.30538
lfemur -4.1938 2.09973 -14.5427
ltibia 30.8499
lfoot -1.59283 4.81494
ltoes -30.7141
1403
root -3.85954 18.6816 6.61401 -2.92021 -32.9966 10.8176
lowerback 11.2865 -0.683622 4.75643
upperback 2.25521 -0.289156 2.04965
thorax -3.98021 -0.203266 -0.497601
lowerneck -11.0086 -0.100517 -0.577124
upperneck -17.4225 0.253851 5.75567
head -3.86707 -0.170256 2.04803
rclavicle 2.10712e-014 3.49861e-014
rhumerus 43.8898 -12.1363 -52.2435
rradius 85.5745
rwrist 18.4583
rhand -64.443 -15.5779
rfingers 7.12502
rthumb -36.3705 -41.8025
lclavicle 2.10712e-014 3.49861e-014
lhumerus -17.5634 -27.4385 76.0673
lradius 42.7138
lwrist -3.49533
lhand -31.4158 41.3338
lfingers 7.12502
lthumb -4.68467 71.262
rfemur -17.3586 18.3637 8.20085
rtibia 33.9392
rfoot -19.1058 -8.55984
rtoes 1.68795
lfemur -4.1363 1.77169 -13.9486
ltibia 30.66
lfoot -1.38344 4.29895
ltoes -30.9816
1404
root -3.89203 18.6883 6.62394 -2.80794 -32.3955 10.4738
lowerback 10.9125 -0.622386 4.77497
upperback 2.2552 -0.23502 1.90217
thorax -3.77175 -0.172514 -0.672796
lowerneck -11.5404 -0.489425 -0.586909
upperneck -17.0516 -0.281492 5.7753
head -3.61767 -0.417043 2.04087
rclavicle 4.05521e-014 4.92986e-014
rhumerus 45.7928 -13.4536 -52.0722
rradius 83.7709
rwrist 18.7016
rhand -64.0879 -13.2553
rfingers 7.12502
rthumb -36.0342 -39.5634
lclavicle 4.05521e-014 4.92986e-014
lhumerus -17.6647 -26.2812 74.8408
lradius 42.6018
lwrist -3.31052
lhand -31.9002 41.3919
lfingers 7.12502
lthumb -5.15234 71.3092
rfemur -16.7494 18.3296 8.6763
rtibia 33.5698
rfoot -19.184 -9.06382
rtoes 1.87693
lfemur -4.04513 1.52247 -13.6014
ltibia 30.5898
lfoot -1.14593 3.89489
ltoes -30.9687
